PathFileType	4	(X/Y/Z) shrug_2kg_3.trc																										
DataRate	CameraRate	NumFrames	NumMarkers	Units	OrigDataRate	OrigDataStartFrame	OrigNumFrames																					
100	100	53	9	mm	100	348	556																					
Frame#	Time	gu			centelbow			EpL			centpxt8			centijc7			ij			ts			aa			ai		
		X1	Y1	Z1	X2	Y2	Z2	X3	Y3	Z3	X4	Y4	Z4	X5	Y5	Z5	X6	Y6	Z6	X7	Y7	Z7	X8	Y8	Z8	X9	Y9	Z9  
347	3.47	-96.23	-13.501	162.401	-138.546	-255.79	184.525	-120.549	-252.44	211.064	-46.816	-153.158	-8.669	-46.816	31.938	-8.669	0	0	0	-140.542	33.647	48.579	-119.632	24.418	165.636	-168.678	-76.313	50.247
348	3.48	-95.731	-13.094	161.198	-138.008	-255.402	183.196	-119.95	-252.077	209.697	-46.816	-153.158	-8.669	-46.816	31.938	-8.669	0	0	0	-140.087	33.915	48.126	-118.735	24.81	165.113	-168.036	-76.09	49.979
349	3.49	-95.447	-13.265	160.698	-137.905	-255.55	182.591	-119.834	-252.253	209.086	-46.816	-153.158	-8.669	-46.816	31.938	-8.669	0	0	0	-139.886	33.892	48.149	-118.295	24.838	165.097	-167.74	-76.135	50.089
350	3.5	-95.411	-13.456	160.69	-138.104	-255.709	182.491	-120.048	-252.435	209	-46.816	-153.158	-8.669	-46.816	31.938	-8.669	0	0	0	-140	33.599	48.522	-118.308	24.571	165.452	-167.843	-76.431	50.508
351	3.51	-95.362	-13.491	160.789	-138.255	-255.716	182.501	-120.22	-252.461	209.026	-46.816	-153.158	-8.669	-46.816	31.938	-8.669	0	0	0	-140.078	33.379	48.764	-118.299	24.386	165.681	-167.933	-76.647	50.806
352	3.52	-95.095	-13.491	160.797	-138.144	-255.696	182.425	-120.127	-252.457	208.964	-46.816	-153.158	-8.669	-46.816	31.938	-8.669	0	0	0	-139.79	33.394	48.675	-117.906	24.432	165.575	-167.64	-76.631	50.771
353	3.53	-94.748	-13.481	160.667	-137.906	-255.672	182.229	-119.901	-252.445	208.777	-46.816	-153.158	-8.669	-46.816	31.938	-8.669	0	0	0	-139.315	33.503	48.421	-117.355	24.553	165.308	-167.158	-76.524	50.546
354	3.54	-94.619	-13.493	160.432	-137.878	-255.672	181.927	-119.883	-252.458	208.484	-46.816	-153.158	-8.669	-46.816	31.938	-8.669	0	0	0	-139.097	33.502	48.2	-117.124	24.55	165.084	-166.962	-76.519	50.331
355	3.55	-94.754	-13.622	160.331	-138.172	-255.783	181.717	-120.191	-252.588	208.286	-46.816	-153.158	-8.669	-46.816	31.938	-8.669	0	0	0	-139.234	33.327	48.158	-117.309	24.358	165.05	-167.158	-76.679	50.273
356	3.56	-94.941	-13.842	160.568	-138.569	-255.978	181.799	-120.615	-252.809	208.388	-46.816	-153.158	-8.669	-46.816	31.938	-8.669	0	0	0	-139.462	33.127	48.31	-117.634	24.128	165.217	-167.464	-76.86	50.389
357	3.57	-95.025	-14.045	160.911	-138.883	-256.154	181.984	-120.963	-253.011	208.6	-46.816	-153.158	-8.669	-46.816	31.938	-8.669	0	0	0	-139.57	33.041	48.444	-117.856	24.008	165.37	-167.647	-76.928	50.479
358	3.58	-95.062	-14.198	160.99	-139.138	-256.279	181.931	-121.246	-253.158	208.569	-46.816	-153.158	-8.669	-46.816	31.938	-8.669	0	0	0	-139.569	33.005	48.382	-117.958	23.94	165.325	-167.709	-76.948	50.375
359	3.59	-95.155	-14.274	160.786	-139.388	-256.337	181.611	-121.518	-253.235	208.266	-46.816	-153.158	-8.669	-46.816	31.938	-8.669	0	0	0	-139.558	32.967	48.163	-118.041	23.871	165.121	-167.74	-76.976	50.112
360	3.6	-95.308	-14.252	160.518	-139.624	-256.308	181.233	-121.778	-253.219	207.905	-46.816	-153.158	-8.669	-46.816	31.938	-8.669	0	0	0	-139.564	32.989	47.932	-118.148	23.86	164.906	-167.765	-76.951	49.83
361	3.61	-95.486	-14.214	160.365	-139.877	-256.267	180.969	-122.06	-253.188	207.662	-46.816	-153.158	-8.669	-46.816	31.938	-8.669	0	0	0	-139.577	33.078	47.798	-118.285	23.924	164.792	-167.786	-76.86	49.643
362	3.62	-95.693	-14.302	160.458	-140.222	-256.34	180.938	-122.441	-253.276	207.657	-46.816	-153.158	-8.669	-46.816	31.938	-8.669	0	0	0	-139.626	33.106	47.769	-118.492	23.934	164.79	-167.857	-76.828	49.563
363	3.63	-95.969	-14.551	160.809	-140.703	-256.561	181.165	-122.964	-253.515	207.914	-46.816	-153.158	-8.669	-46.816	31.938	-8.669	0	0	0	-139.714	32.939	47.821	-118.769	23.756	164.875	-167.991	-76.984	49.567
364	3.64	-96.326	-14.797	161.15	-141.247	-256.78	181.424	-123.552	-253.746	208.203	-46.816	-153.158	-8.669	-46.816	31.938	-8.669	0	0	0	-139.772	32.684	47.886	-119.029	23.503	164.977	-168.087	-77.229	49.592
365	3.65	-96.65	-14.803	161.16	-141.644	-256.775	181.393	-123.986	-253.742	208.196	-46.816	-153.158	-8.669	-46.816	31.938	-8.669	0	0	0	-139.747	32.607	47.81	-119.199	23.455	164.937	-168.04	-77.313	49.492
366	3.66	-96.814	-14.614	160.872	-141.786	-256.596	181.044	-124.165	-253.559	207.872	-46.816	-153.158	-8.669	-46.816	31.938	-8.669	0	0	0	-139.717	32.669	47.549	-119.384	23.575	164.718	-167.913	-77.275	49.214
367	3.67	-96.879	-14.555	160.604	-141.846	-256.546	180.666	-124.278	-253.508	207.528	-46.816	-153.158	-8.669	-46.816	31.938	-8.669	0	0	0	-139.796	32.566	47.271	-119.763	23.545	164.497	-167.855	-77.415	48.906
368	3.68	-96.945	-14.764	160.508	-141.974	-256.754	180.449	-124.48	-253.716	207.36	-46.816	-153.158	-8.669	-46.816	31.938	-8.669	0	0	0	-139.927	32.313	47.109	-120.286	23.381	164.409	-167.822	-77.71	48.701
369	3.69	-96.969	-15.11	160.481	-142.09	-257.089	180.335	-124.681	-254.048	207.3	-46.816	-153.158	-8.669	-46.816	31.938	-8.669	0	0	0	-139.947	32.24	46.967	-120.717	23.412	164.343	-167.644	-77.833	48.522
370	3.7	-96.954	-15.359	160.449	-142.126	-257.333	180.261	-124.802	-254.28	207.279	-46.816	-153.158	-8.669	-46.816	31.938	-8.669	0	0	0	-139.83	32.38	46.689	-120.933	23.657	164.127	-167.324	-77.745	48.227
371	3.71	-97.02	-15.296	160.413	-142.124	-257.283	180.22	-124.881	-254.206	207.288	-46.816	-153.158	-8.669	-46.816	31.938	-8.669	0	0	0	-139.659	32.487	46.322	-121	23.863	163.805	-166.994	-77.677	47.868
372	3.72	-97.126	-14.925	160.389	-142.044	-256.946	180.208	-124.877	-253.837	207.32	-46.816	-153.158	-8.669	-46.816	31.938	-8.669	0	0	0	-139.46	32.531	46.056	-120.987	23.992	163.574	-166.684	-77.66	47.619
373	3.73	-97.154	-14.472	160.469	-141.878	-256.528	180.287	-124.781	-253.39	207.44	-46.816	-153.158	-8.669	-46.816	31.938	-8.669	0	0	0	-139.262	32.607	45.972	-120.962	24.128	163.522	-166.415	-77.601	47.538
374	3.74	-97.178	-14.138	160.677	-141.799	-256.215	180.475	-124.766	-253.057	207.666	-46.816	-153.158	-8.669	-46.816	31.938	-8.669	0	0	0	-139.197	32.644	45.953	-121.061	24.193	163.531	-166.328	-77.57	47.504
375	3.75	-97.272	-14.025	160.832	-141.892	-256.105	180.601	-124.913	-252.938	207.824	-46.816	-153.158	-8.669	-46.816	31.938	-8.669	0	0	0	-139.298	32.587	45.838	-121.302	24.15	163.438	-166.437	-77.626	47.37
376	3.76	-97.372	-14.097	160.798	-142.027	-256.173	180.533	-125.086	-253.003	207.78	-46.816	-153.158	-8.669	-46.816	31.938	-8.669	0	0	0	-139.406	32.546	45.636	-121.531	24.13	163.256	-166.531	-77.67	47.158
377	3.77	-97.426	-14.184	160.692	-142.08	-256.263	180.383	-125.173	-253.09	207.65	-46.816	-153.158	-8.669	-46.816	31.938	-8.669	0	0	0	-139.454	32.568	45.476	-121.709	24.192	163.119	-166.536	-77.658	46.997
378	3.78	-97.451	-14.179	160.705	-142.055	-256.271	180.348	-125.187	-253.092	207.638	-46.816	-153.158	-8.669	-46.816	31.938	-8.669	0	0	0	-139.557	32.567	45.41	-121.974	24.242	163.08	-166.598	-77.669	46.934
379	3.79	-97.532	-14.095	160.902	-142.077	-256.203	180.496	-125.254	-253.014	207.814	-46.816	-153.158	-8.669	-46.816	31.938	-8.669	0	0	0	-139.729	32.507	45.427	-122.338	24.23	163.129	-166.743	-77.736	46.947
380	3.8	-97.804	-13.951	161.146	-142.312	-256.07	180.693	-125.537	-252.873	208.039	-46.816	-153.158	-8.669	-46.816	31.938	-8.669	0	0	0	-139.842	32.446	45.49	-122.667	24.214	163.227	-166.829	-77.805	46.998
381	3.81	-98.262	-13.806	161.335	-142.756	-255.93	180.839	-126.032	-252.726	208.215	-46.816	-153.158	-8.669	-46.816	31.938	-8.669	0	0	0	-139.884	32.408	45.54	-122.943	24.229	163.315	-166.841	-77.85	47.039
382	3.82	-98.672	-13.746	161.553	-143.178	-255.87	181.041	-126.512	-252.654	208.451	-46.816	-153.158	-8.669	-46.816	31.938	-8.669	0	0	0	-139.931	32.383	45.561	-123.249	24.273	163.378	-166.872	-77.878	47.062
383	3.83	-98.92	-13.727	161.76	-143.464	-255.84	181.294	-126.861	-252.607	208.741	-46.816	-153.158	-8.669	-46.816	31.938	-8.669	0	0	0	-140.031	32.392	45.539	-123.615	24.377	163.4	-166.968	-77.87	47.067
384	3.84	-99.157	-13.655	161.789	-143.767	-255.746	181.433	-127.226	-252.491	208.914	-46.816	-153.158	-8.669	-46.816	31.938	-8.669	0	0	0	-140.199	32.448	45.42	-124.035	24.551	163.324	-167.132	-77.814	47
385	3.85	-99.436	-13.582	161.706	-144.126	-255.649	181.473	-127.652	-252.369	208.991	-46.816	-153.158	-8.669	-46.816	31.938	-8.669	0	0	0	-140.342	32.495	45.224	-124.433	24.715	163.169	-167.266	-77.769	46.853
386	3.86	-99.661	-13.547	161.717	-144.395	-255.599	181.568	-128.001	-252.294	209.131	-46.816	-153.158	-8.669	-46.816	31.938	-8.669	0	0	0	-140.312	32.479	45.047	-124.677	24.795	163.036	-167.222	-77.788	46.701
387	3.87	-99.906	-13.419	161.833	-144.617	-255.471	181.738	-128.309	-252.138	209.349	-46.816	-153.158	-8.669	-46.816	31.938	-8.669	0	0	0	-140.19	32.473	44.891	-124.827	24.87	162.92	-167.073	-77.8	46.554
388	3.88	-100.319	-13.087	161.856	-144.955	-255.147	181.826	-128.725	-251.785	209.48	-46.816	-153.158	-8.669	-46.816	31.938	-8.669	0	0	0	-140.215	32.638	44.631	-125.077	25.124	162.695	-167.048	-77.647	46.318
389	3.89	-100.821	-12.643	161.628	-145.376	-254.71	181.697	-129.206	-251.317	209.382	-46.816	-153.158	-8.669	-46.816	31.938	-8.669	0	0	0	-140.409	33.004	44.269	-125.426	25.593	162.359	-167.179	-77.295	46.007
390	3.9	-101.256	-12.298	161.278	-145.78	-254.361	181.463	-129.655	-250.943	209.171	-46.816	-153.158	-8.669	-46.816	31.938	-8.669	0	0	0	-140.589	33.366	44.003	-125.722	26.053	162.115	-167.321	-76.942	45.802
391	3.91	-101.576	-12.164	161.101	-146.146	-254.21	181.392	-130.063	-250.772	209.122	-46.816	-153.158	-8.669	-46.816	31.938	-8.669	0	0	0	-140.673	33.471	43.945	-125.921	26.235	162.075	-167.413	-76.834	45.789
392	3.92	-101.718	-12.179	161.206	-146.373	-254.204	181.556	-130.335	-250.754	209.311	-46.816	-153.158	-8.669	-46.816	31.938	-8.669	0	0	0	-140.687	33.32	43.994	-126.05	26.13	162.142	-167.465	-76.976	45.861
393	3.93	-101.642	-12.222	161.448	-146.374	-254.233	181.792	-130.382	-250.779	209.572	-46.816	-153.158	-8.669	-46.816	31.938	-8.669	0	0	0	-140.658	33.164	44.033	-126.123	25.991	162.195	-167.464	-77.125	45.897
394	3.94	-101.5	-12.193	161.641	-146.268	-254.202	181.93	-130.318	-250.747	209.734	-46.816	-153.158	-8.669	-46.816	31.938	-8.669	0	0	0	-140.625	33.19	44.015	-126.178	26.02	162.187	-167.423	-77.1	45.859
395	3.95	-101.452	-12.057	161.658	-146.191	-254.077	181.884	-130.276	-250.619	209.708	-46.816	-153.158	-8.669	-46.816	31.938	-8.669	0	0	0	-140.605	33.336	43.959	-126.228	26.169	162.14	-167.37	-76.963	45.785
396	3.96	-101.511	-11.86	161.48	-146.181	-253.896	181.668	-130.29	-250.432	209.505	-46.816	-153.158	-8.669	-46.816	31.938	-8.669	0	0	0	-140.61	33.458	43.923	-126.281	26.298	162.11	-167.351	-76.847	45.742
397	3.97	-101.692	-11.691	161.276	-146.325	-253.735	181.451	-130.451	-250.267	209.297	-46.816	-153.158	-8.669	-46.816	31.938	-8.669	0	0	0	-140.69	33.494	43.944	-126.401	26.342	162.137	-167.445	-76.807	45.763
398	3.98	-101.966	-11.654	161.229	-146.65	-253.69	181.384	-130.795	-250.223	209.241	-46.816	-153.158	-8.669	-46.816	31.938	-8.669	0	0	0	-140.808	33.459	44.025	-126.57	26.309	162.224	-167.603	-76.833	45.841
399	3.99	-102.147	-11.776	161.258	-146.943	-253.796	181.354	-131.109	-250.338	209.224	-46.816	-153.158	-8.669	-46.816	31.938	-8.669	0	0	0	-140.8	33.401	44.111	-126.62	26.251	162.317	-167.626	-76.884	45.917
